<?xml version="1.0" encoding="utf-8"?>
<!-- Generator: Adobe Illustrator 22.0.0, SVG Export Plug-In . SVG Version: 6.00 Build 0)  -->
<svg xmlns="http://www.w3.org/2000/svg" xml:space="preserve" viewBox="0 0 800 800"><path fill="#ffd040" d="M21.9 393.7c0 206.8 168.2 375 375 375s375-168.2 375-375-168.2-375-375-375-375 168.2-375 375"/><g fill="#c10230"><path d="M396.9 14.5c-209.1 0-379.1 170.1-379.1 379.1s170.1 379.1 379.1 379.1C606 772.7 776 602.6 776 393.6S605.9 14.5 396.9 14.5m0 750C192.4 764.5 26 598.1 26 393.7 26 189.2 192.4 22.8 396.9 22.8s370.8 166.4 370.8 370.9c0 204.4-166.4 370.8-370.8 370.8"/><path d="m170.5 134.9 28.7 33.2 7-5.9-19.6-23.6c-1.6-2.1-2.2-4.7-1.7-8 .5-3.7 2.1-6.6 5-8.9 3.7-2.9 8.1-3 11.6 1.4l19.7 27.4 7-4.9-19.8-28.3c-6.4-8.2-15-8.6-22.7-2.6-4.1 3.2-6.6 7.6-7.5 13l-3.6-4.2-11.3 9.7.7.9c-.2 0 4.1-1.7 6.5.8M412.1 95c17.2 1.3 26.3-5.1 27.2-17.5.6-8.6-4.2-14.4-14.2-17.3-8.4-2.4-10.1-2.9-10.4-3-3-1.1-4.1-2.1-4-2.7 0-.6 1-1.3 2.6-1.8 2-.7 4.4-.9 7-.7 6.8.5 12.2 3 15.8 7.4l1.9 2.3.8-10.3-.3-.4c-3.5-4.3-9.5-6.7-17.9-7.4-4.8-.4-9 .4-12.6 2.3-3.8 1.9-5.8 4.8-6.1 8.4-.3 3.7 1.4 6.7 5 8.7.9.5 2 1 3.5 1.6l1.6.6c1.6.6 3.6 1.1 5.8 1.7 8.8 2.3 13.1 5.7 12.7 10-.6 7.8-7.6 11.4-20.6 9.9l.3-17.4h-9.1l-.3 24.3 1 .2c3.4.6 7.1.9 10.3 1.1M90.3 239.8l39.1 21 4.3-7.9-19.3-10.4c-.7-2.8-2.1-9-3.7-15.7 2.6-2.3 7.3-4.9 11.3-2.5l20.8 12.3 4.6-7.3-22.4-13.6c-5.9-3.7-12.3-1.2-16.4 2-2-8.6-3.6-16-3.6-16l-6.5 10.2 5.8 25.2-15.3-8.3-6.1 12.4 1 .5c0 .1 3.2-3.2 6.4-1.9M656.7 183c1.9-1 4-1 6.2 0q3.6 1.65 6.3 5.4 2.85 4.05 3.3 7.5c.2 2.1-.4 4-1.9 5.1-.7.5-2.7 1.6-6.9-2.4-2.6-2.9-5.3-5.8-8-8.7-7.2-7.4-14.5-8.5-21.8-3.2-7.9 5.7-8.7 13.4-2.3 22.3 1.3 1.9 3 3.9 4.9 6l.7.8 7.2-5.2-1.2-1c-2-1.6-3.6-3.3-4.8-5-4.4-6-1.7-9 .7-10.7 3.8-2.8 7.7-1.8 12 3 4.7 5.3 8.2 9 10.4 11.1l-15.1 10.2c-1.8 1.4-4.7 4.6-2.2 8l2.5 3.5 2 2.8.9-.6s-1-3.6 1.5-6l23.9-15.6c3.6-2.6 5.9-6.5 6.3-10.5v.2q4.05.9 6.9-1.2l1-.7-5.5-7.6-1 .7c-.9.6-1.8.7-2.8.2-.9-2.2-2.3-5.4-3.9-7.7-3-4.2-6.6-7.1-10.5-8.7-4.6-1.9-9.3-1.7-13.8.6l-1.2.6 5.3 7.3zM542.6 83.3l-16.1 33.4c-2.2 3.6-7.1 2.4-7.1 2.4l-.5.9 12.3 6.1 2.2-4.3c1.7 5.2 4.9 9.1 9.4 11.7 8.5 4.8 15.7 2.5 20.7-6.6l17.8-29.1-8-5-17.5 29.5c-2.7 4.9-5.9 6.1-9.9 3.8-3.2-1.8-5.3-4.4-6.3-8.1-.9-3.2-.8-5.9.4-8.1L553.8 82l-12.6-6.2-.5.9c0 .1 3.3 3.4 1.9 6.6M297.2 74.7l8.7-2.2-.1-1c-.2-2.2.6-4 2.4-5.8 1.9-1.8 4.4-3.1 7.4-3.9 3.2-.8 7.3-1.2 9.5-.6 2 .6 3.2 1.7 3.7 3.4.2.8.8 3.3-4.5 5.7-3.6 1.4-8.6 3.1-12.4 4.4-9.5 3.9-13.2 10.3-11.1 19.1 2.4 9.5 9.2 13.1 19.8 10.5 2.2-.6 4.7-1.3 7.4-2.3l1-.4-2.2-8.6-1.3.7c-2.3 1.2-4.4 2.1-6.5 2.6-7.2 1.8-9-1.8-9.7-4.6-1.1-4.6 1.2-7.8 7.3-10 6.6-2.4 11.9-4.5 14.5-6.3l3.8 18.2c.7 2.2 2.5 6.1 6.7 5l6.8-1.3-.3-1.1s-3.2-.2-4.5-4.2l-5.8-28.8c-1.3-5.2-4.4-8.6-9.3-10.1-3.8-1.2-9.7-.9-15 .5-5 1.3-9 3.4-12 6.5-3.5 3.6-5.1 8-4.6 13.1zM671.7 223.6c-6.5 3.2-10.9 7.5-13.3 12.9-2.5 5.9-2.1 12.2 1.2 18.8.6 1.2 1.3 2.4 2 3.6l.6.9 7.6-3.8-.9-1.1c-.7-.9-1.3-1.9-1.8-2.9-1.9-3.9-2.1-7.6-.6-11.2 1.5-3.7 4.6-6.7 9.2-9 3.6-1.8 7.4-2.4 11.2-1.8 3.4.6 5.5 1.6 8 4.4l-5.6 10.3 8 2.7-28.6 13.9c-1.9 1.3-4 3.7-2.4 6.9l1.8 3.5 1.5 3.1 1-.5s-.2-3.3 2.7-5.1l39.9-18.1-3.7-7.4-10.1-3.2 4.9-8.6-.4-.5c-3.8-5.6-8.6-8.6-14.3-10-6.1-1.4-12-.7-17.9 2.2M70.1 289.1l36.6 11.8c3.2 1.5 3.2 6.6 3.2 6.6l1 .4 1.6-4.5 2.9-8.4v-.1l-4.6-1.6c4.8-2.6 8.1-6.3 9.9-11.2 3.2-9.2-.3-15.9-10-19.3L79.2 249l-3.7 8.5 31.9 13.7c5.3 1.8 7 4.7 5.4 9.1-1.2 3.5-3.5 5.9-6.9 7.6-3 1.5-5.7 1.8-8.1 1L68 278.5l-.3-.3-4.3 13.4 1 .4c.1-.1 2.3-3.7 5.7-2.9M346.7 42.3l2.8-7.6c-23.5 4.1-26.1 4.8-26.1 4.8l-1.2-4.7-9.4 2.2 3 11.6c.1 0 9-2.9 30.9-6.3M460.1 101.7c1.3.3 4.5.8 7.7.5 2.6-.3 5.3-1.3 6.2-1.7 4.4-2 7.3-5.9 8.5-11.6 1.9-8.6-2.4-15-12.6-19.1-3.7-1.5-6.3-2.6-7.5-3.6-2.8-1.9-2.5-3.4-2.4-3.9.4-1.6 1.4-2.6 3.5-3.2 1.9-.6 4.3-.6 6.9 0 5.6 1.3 9.9 4 12.8 8.2l1.5 2.3 2.2-10-.4-.5c-3.6-4.1-8.7-7-15.2-8.4-4.7-1-8.9-.7-12.7.9-3.9 1.7-6.3 4.6-7.2 8.6-1 4.6.4 8.5 4.1 11.6 2.2 1.8 6 3.8 11.6 6q8.25 3.3 6.9 9.3c-.8 3.6-2.9 8.2-12.6 6-5.7-1.3-10.3-3.6-13-7.7l-1.5-2.3-2.2 10.2.4.5c3 3.7 8.1 6.4 15 7.9M735.5 295.3c.8-.2 1.3-.2 1.8.1s.8 1 1.1 1.9l1.1 4 8.7 2-3.2-10.5c-.7-2.6-2-4.6-3.8-5.9-1.9-1.3-4-1.6-6.3-1l-3.8 1 2.4 8.9zM706 266c-4.4 1.6-6.9 4.8-7.5 9.5-.3 2.8 0 7 1.2 13 1.1 5.8-.3 9.3-4.1 10.7-2.7 1-4.9.8-6.8-.4-2-1.2-3.6-3.7-4.9-7.3-2-5.5-1.9-10.5.1-15l1.4-3.1-10 4-.2.6c-1.4 4.7-1 10.5 1.4 17.1q2.7 7.65 7.8 11.1c2.5 1.6 5.2 2.4 8.1 2.3 1.9 0 3.9-.4 6.1-1.2 8.2-2.9 11.3-9.9 9.2-20.7-.8-3.9-1.1-6.7-1-8.3.1-3.4 1.5-3.9 2-4.1 1.5-.5 3-.1 4.5 1.3 1.5 1.3 2.8 3.3 3.7 5.8 1.9 5.4 1.9 10.5 0 15.1l-1.1 2.5 9.2-2.7.4-1.3c1.5-5.2 1.2-11-1.1-17.3-1.6-4.5-4.1-7.9-7.5-10.3-3.3-2.1-7.1-2.7-10.9-1.3M137.2 164.4l-.2 2.5 7.2 6.8.2-4.5c.1-4.4 1.8-8.3 4.9-11.6 5.5-5.8 12.4-5.1 20.8 2.9s9.6 15.2 4.1 20.9c-3.4 3.5-7.2 5.4-11.3 5.5l-2.9.1 7.3 7 .6-.2c4.8-1.2 8.9-3.5 12-6.8 4.7-5 6.8-10.3 6.1-15.8-.7-5.4-4.1-11-10.1-16.8-6-5.7-11.9-8.9-17.3-9.3-5.5-.5-10.7 1.8-15.5 6.8-3 3.4-5 7.6-5.9 12.5M151.9 135l-5.4-5.6c-15.4 15.2-23.2 24.5-23.2 24.5l3 8.8s3.9-6 25.6-27.7M484.9 102.9c2.6 4.2 7.3 7.7 13.9 10.2 1.2.5 4.3 1.5 7.5 1.6 2.6.1 5.4-.5 6.4-.8 4.7-1.4 8.1-4.8 10.1-10.2 3.1-8.2-.1-15.2-9.7-20.8-3.5-2-5.8-3.5-6.9-4.7-2.5-2.3-2-3.7-1.8-4.2.6-1.5 1.8-2.4 3.9-2.6 2-.3 4.3 0 6.8 1 5.4 2.1 9.2 5.4 11.4 10l1.2 2.5 3.6-9.5-.3-.5c-2.9-4.6-7.6-8.2-13.8-10.6-4.4-1.7-8.7-2.1-12.7-1-4.1 1.1-7 3.6-8.4 7.5-1.7 4.4-.9 8.5 2.3 12.1 1.9 2.1 5.4 4.6 10.6 7.7 5.1 3 6.9 6.3 5.4 10.2-1.3 3.4-4 7.7-13.3 4.1-5.4-2.1-9.6-5.1-11.7-9.6l-1.2-2.5-3.7 9.8zM118.3 196.2c.5-1.5 1.2-3 2.3-4.5 1.5-2.1 3.4-3.8 5.1-4.3 2-.6 4.1-.1 6.4 1.3l28.3 21.9 4.6-5.9 2.8-3.5-.9-.7s-3 1.6-5.9-.3l-23.7-18.9c-3.5-2.6-7.2-3.4-10.5-3.2-4.5.3-8.4 2.7-12.3 7.9-2.4 3.3-4.3 8.8-4.7 12.3l-.1.7 7.3 5.4c.2-5.4 1.3-8.2 1.3-8.2M261.2 80.1c1.2-1 2.6-1.9 4.4-2.6 2.4-1 4.9-1.4 6.6-1 2 .5 3.7 1.9 4.8 4.5l12.4 33.1.6-.2 5.4-2.1 2.1-.8 3.3-1.3-.4-1s-3.4-.1-4.9-3.3l-10.2-28.1c-1.7-3.9-4.4-6.6-7.3-8.1-3.9-2.1-8.6-2.1-14.6.3-3.8 1.5-8.2 5.2-10.5 8l-.4.5 3.4 8.4c3-4.5 5.3-6.3 5.3-6.3M629.9 146.7c1.4.7 3.5 2.2 4.9 3.5 1.8 1.9 3.1 4 3.3 5.7.3 2-1 4-3 6l-23.8 23 .2.2 4 4.2 1.5 1.6 2.5 2.6.8-.7s-1.2-3.2 1.1-5.8l20.6-18.5c3.1-3.1 4.5-6.6 4.8-9.9.5-4.5-1.7-9.4-6.3-14-2.9-2.9-8-5.6-11.4-6.6l-.7-.2-6.4 6.4c5.3 1 7.9 2.5 7.9 2.5M220.3 114.3c1.2.4 2.4.5 3.6.4-2.3 4.5-1.9 9.3 1 14.3 2.3 4 5.3 6.5 8.8 7.4 1.2.3 2.5.4 3.8.4 3.4-.1 7.3-1.5 11.5-4l17.5-9.7-19.9-39.2c-1.2-3.3 2.2-6.5 2.2-6.5l-.5-1-4.4 2.2-1.6.8-6.4 3.1-.8.4 19.2 37.3-7.4 4.5c-3.1 1.9-5.7 3-7.6 3.3-3 .4-5.4-1-7.2-4.1-1.5-2.5-1.6-5-.4-7.7s3.2-4.7 5.9-6l1.8-.9-7.1-5.1-.7.5c-.5.4-1 .7-1.6 1-5.1 3-7 1-8-.7s-1.7-4.3 3.6-7.4c1.1-.6 2.2-1.1 3.5-1.5l1.4-.4-4.2-7.2-.9.3q-2.4.75-4.5 2.1c-3.7 2.2-6.3 4.9-7.7 8.1-1.4 3.4-1.1 6.8.9 10.3 1.5 2.5 3.5 4.2 6.2 5M353.6 65.6c.9.8 1.9 1.5 3 1.9-4 3.1-5.8 7.5-5.4 13.3.3 4.6 1.9 8.1 4.7 10.5q4.5 3.75 12.9 3.6c.8 0 1.6-.1 2.5-.1l19.9-1-1-43.9c.3-3.5 4.7-4.9 4.7-4.9v-1.1l-10.7.1-4 .1 1.5 41.7-8.6.8c-3.6.3-6.5.2-8.3-.4-2.9-1-4.4-3.3-4.7-6.8-.2-2.9.8-5.3 3-7.1 2.3-1.9 4.9-2.9 8-2.8h2l-4.1-7.7-.9.2c-.6.1-1.2.2-1.9.2-2.3.2-4.1-.1-5.2-.8-1-.7-1.6-1.7-1.7-3.3-.1-1.5.3-2.7 1.3-3.5 1.1-.9 2.8-1.4 5.2-1.6 1.3-.1 2.5 0 3.8.2l1.5.2-.6-8.3-1-.1c-1.7-.2-3.3-.2-5-.1-4.3.3-7.8 1.6-10.4 4-2.8 2.4-4 5.6-3.7 9.6.1 2.8 1.2 5.2 3.2 7.1M570.5 150l8.5-11.8s3.2-5 7.2-1.8l5.5 4.2 5.4-6.6-6.4-5c-1.7-1.3-3.3-1.3-4.6-.8l4.2-5.5c2.1-2.7 6.8-6 14.3-.2s5.6 10.8 3.6 13.5l-21.9 26.1 6 5 3.1 2.6.7-.8s-1.5-2.9.4-5.8l19.1-22.1c2.8-3.7 3.8-7.8 2.7-12.1 2.4-.3 4.3-1.3 5.6-3l.7-.9-7.4-5.8-.7.9c-.6.8-1.3 1.1-2.4 1-1.2-1.5-2.8-3.3-4.6-4.7-3.8-2.9-8.5-5.3-12.8-5.4-5.4-.2-9.8 1.4-13 5.6l-20 28.3zM108.8 514.5l7.6-2.8-12.3-34.6-12.7 3.7.4 1s4.8.7 6.4 3.7l2.7 7.4-38.5 13.4 3.5 9.6 38.3-14zM154.5 576.6l-10.8-14.7-.9.6s1.6 4.4-1 6.7l-41.3 15.2-.2.1 5.4 7.7 10.3-3.9 8.9 11.8-7 8.8 5.7 7.3 30.8-39.6zM130 593.8l-6.4-8.4 19.6-7.6zM188.1 614.2l-30 16.5 16.9-29.1v-.4l-11.7-13.1-.8.8s2.2 4.1-.1 6.7l-31.9 28.6 5.8 6.4 27.5-25.1-19.3 33.6 5.2 5.1 33.8-18.7-24.6 27.3 6.7 5.9 31.9-35.9zM449.1 692.3l-9.2 1.4 4.5 30.3c.7 7.3-1.9 10.3-8.3 10.9s-10.3-1.2-11-8.5l-2.2-30.7-14.3.9.1 1.1s4.6.9 5.3 4.3l1.5 25c.7 7 5.2 17.6 21.3 15.9 16.1-1.6 17.7-13.3 17-20.3zM486.6 683.3l10.9 32.4-27.2-27.7-.1-.1-14.7 3.4.3 1s4.7.1 5.9 3.4l9.3 40.2 9.1-2.1-7.5-32.3 26.3 27.1 11.3-3.7-14.5-44.8zM591.2 675.3l-7.5-10.4 14.5-10.5-4.8-6.5-13.6 10.1-6.1-8.8 17.6-12.9-4.7-6.2-29.3 20.7.8 1c-.1 0 4-2 6.7 1l23.1 34.3 27.7-20.4-5.2-6.2zM629.5 610.7c-6.3-6.6-14-6.6-21.2.1l-17.6 16.5.7.8s4.1-2 6.7.2l27.9 31 7.6-6.5-13.1-14.1 5.8-5.4 19.5 7.8 7.2-7.6-21.5-7.8c3-4.9 2.2-10.5-2-15m-9.2 17.6-5.1 4.7-8.8-9.8 6-5.6c3.7-3.4 7.1-3.6 10.1-.4 2.7 2.9 3.4 5.9-2.2 11.1M502 677.9l.4 1s4.6-.4 6.3 2.7l15.4 38.8 9.2-3.8-18.3-43.9zM554.2 652.9l-8.3 4.8 9.1 33.8-21.6-23.3c-2.9-2.6-5.9-1-5.9-1l-8.2 3.9.5 1s3.8-.7 5.9 1.3l30.6 32.2 9.6-5.1-11.7-47.3zM646.4 566.1l.9.6s3.6-3 6.7-1.3l35.3 23.6 5.7-8.8-40.7-25.6zM231.9 648.4l-26.3 21.7 11.2-32.1v-.1l-14.3-11-.6.9s2.9 3.6 1.2 6.7l-26.3 33.3 6.8 5.3 22.8-28.7-12.3 36v.1l5.9 4.1 29.6-24.1-19 31 7.2 4.3 24.3-41.1zM252.6 660.6l-.5 1s3.3 3.3 2.1 6.5L225.1 700l8.3 4.4 7-8 13.4 6.6-2.5 10.4 8.8 3.8 8.7-48.5zm2.9 34.5-9.7-4.7 13.6-15.3zM293.5 697.9c-4.1-3.5-8.1-6.2-6.9-9.3 1.3-3.4 5.9-2.9 8.2-2.1.7.2 4.6 1.6 7.8 4.1 2.6 2.1 4.6 4.6 5.5 6l3-8.7c-3.7-4.3-6.9-6.5-14-8.9-8.7-3-17.6-.4-19.3 7.4-1.7 7.7 4.5 12.7 10 17.5 4.5 3.9 8.9 7.4 7.5 11.2-1.7 4.8-7 4.9-10.6 3.6-3.3-1.2-7-4.1-9.4-7.9-1.9-3.1-2.8-5.5-3-6.1l-3.8 9.2c1.7 5.9 9.4 11 13.4 12.3 10.8 3.6 19.1.5 22.2-8.6 3.1-8.3-4.9-15-10.6-19.7M339.9 691.3l-17.9-3.6-.2 1.1s4.1 2.2 3.8 5.7l-20.1 38.1 9.1 2.2 4.9-9.8 14.5 3.1.5 10.6v.1l9.2 1.6-3.8-49zm-16.8 26.4 9.2-17.8 1.2 20.1zM348.9 706.3l1.1.1s1.7-4.2 5.1-4.3l8.3.7-3.8 39.6 9.5.9 3.8-39.6 13.4 1.3.4-8-36-3.4zM681.6 520.9l-7.4-3.5-16.6 31.4 11.4 6.4.5-1s-3.2-3.2-2-6.4l3.7-6.9 35.9 18.7 4.4-8.7-35.9-18.1zM688.6 478.1l-2.8 9.5 14.1 15.9-16.4.8c-3.9 0-5.1 3.2-5.1 3.2l-3.6 8.4 1 .4s2.1-2.3 4.7-2.7l26.3-2 19 7.1 3.5-9.1-18.4-6.4zM670.9 590.9c-7-5.8-16.7-.9-23.2 2.7-4.7 2.6-8.6 5.4-11.1 3.2-2.8-2.5-.6-6.5.9-8.4.4-.5 3.1-3.8 6.6-5.8 2.8-1.7 5.9-2.7 7.6-3L644 574c-5.3 1.9-7.9 3.9-12.7 9.7-5.9 7.1-6.5 16.3.2 20.7 6.6 4.3 13.5.3 19.9-3.3 5.2-2.8 10.7-5.5 13.8-2.9 4 3.3 1.4 8-1 10.9-2.3 2.7-7.2 5.3-11.6 6.2-3.6.7-6.1.7-6.7.6l8 6.6c6.2.4 13.9-4.9 16.5-8.1 7.2-8.8 8-17.4.5-23.5M131.5 542.9l-16.4 9.5-8.4-15.7 17-8.3-6.3-12.9-1 .5s.8 4.6-2.2 6.4l-38 18.6 4.2 8.6 18.7-9.1 8.7 16.2-18 10.4 4.8 8.3 41.9-24.2zM69 399.9c3.8 0 6.9-3.1 6.9-6.9s-3.1-6.9-6.9-6.9-6.8 3.1-6.8 6.9c-.1 3.8 3 6.9 6.8 6.9M69 384.2c3.3 0 5.9-2.7 5.9-6S69 362.7 69 362.7s-6 12.1-6 15.5c0 3.3 2.7 6 6 6M54.2 387c-3.3 0-15.5 5.9-15.5 5.9s12.2 5.9 15.5 5.9 6-2.6 6-5.9c-.1-3.2-2.7-5.9-6-5.9M68.9 401.7c-3.3 0-5.9 2.7-5.9 6s5.9 15.5 5.9 15.5 5.9-12.2 5.9-15.5c.1-3.3-2.6-6-5.9-6M77.7 393c0 3.3 2.7 5.9 6 5.9s15.5-5.9 15.5-5.9-12.1-6-15.5-6c-3.3 0-6 2.7-6 6M724.2 386.1c-3.8 0-6.8 3.1-6.8 6.9s3.1 6.9 6.8 6.9c3.8 0 6.9-3.1 6.9-6.9s-3.1-6.9-6.9-6.9M718.3 378.2c0 3.3 2.6 6 5.9 6s5.9-2.7 5.9-6-5.9-15.5-5.9-15.5-5.9 12.2-5.9 15.5M693.9 393s12.2 5.9 15.5 5.9 6-2.6 6-5.9-2.7-5.9-6-5.9-15.5 5.9-15.5 5.9M724.2 401.8c-3.3 0-5.9 2.7-5.9 6s5.9 15.5 5.9 15.5 5.9-12.2 5.9-15.5-2.6-6-5.9-6M739 387.1c-3.3 0-6 2.6-6 5.9s2.7 5.9 6 5.9 15.5-5.9 15.5-5.9-12.2-5.9-15.5-5.9"/><path d="M682.1 393.6c0-157.3-127.9-285.2-285.2-285.2S111.7 236.3 111.7 393.6s127.9 285.2 285.2 285.2c157.2 0 285.2-127.9 285.2-285.2m-67.3 166.3c0-.1 0-.3-.1-.4-1.8-9.9-15.2-18.4-20.9-21.6-10-5.7-15.8-11.8-16.6-17.8-.4-2.9.4-5.3 1.3-6.9l.4-.7c3 2.3 10.4 7.6 28.3 19.8 7.7 5.2 11.6 10.8 11.7 16.7 0 4.1-1.9 7.9-4.1 10.9m-105.5-12.6c-.8 3.4-3.8 5.5-5.2 6.3l-22.3 12.9c-1.3.8-4.7 2.4-8.1 1.3q-3.75-1.2-6.3-6.6l-3.5-7.4c.2-.2.4-.4.5-.6 1.6-1.8 3-3.5 4.5-3.7 1.2-.1 2.1-1.2 2.1-2.3 0-1.2-.9-2.2-2.1-2.3-1.4-.2-2.9-1.9-4.5-3.7-2.4-2.8-5.4-6.2-10.3-6.4v-7.9c17-2.5 28-7.2 35.4-13.5l17.2 25.2c2.3 3.2 3.1 6.2 2.6 8.7m2 8.8c.7 0 1.3.1 2 .3 2 .5 3.6 1.8 4.7 3.6 1 1.8 1.3 3.8.8 5.8s-1.8 3.6-3.6 4.7l-1.5.9c-.1.1-.2.1-.3.2l-22.7 13.1c-3.7 2.1-8.4.9-10.5-2.8-1-1.8-1.3-3.8-.8-5.8s1.8-3.6 3.6-4.7l1.1-.6 22.3-12.9 1-.6q1.95-1.2 3.9-1.2m-50.5-5.9c-2.1 2.5-4.2 4.8-7.1 4.8H342.6c-3 0-5-2.3-7.1-4.8-.9-1-1.8-2.1-2.8-2.9 1-.9 1.9-1.9 2.8-2.9 2.1-2.5 4.2-4.8 7.1-4.8h111.1c3 0 5 2.3 7.1 4.8.9 1 1.8 2.1 2.8 2.9-1 .8-1.9 1.9-2.8 2.9m-115.2 66.4c7.6-4.9 12.6-13.2 14.9-24.6 3.2 7.6 11.6 12.9 19.3 17.6 5.6 3.5 11 6.8 13.4 10.5h-55.1c2.5-.8 5.1-2 7.5-3.5m-21.4.3c5.1-2.1 10.8-6.2 13.5-14 .5-1.5.9-2.9 1.4-4.4 1.1-3.8 2.3-7.7 4.7-11.8 3.6-6.1 9.4-12.1 13.3-14.2v8.1c-.8 15.7-5.6 26.4-14.2 32-5.7 3.8-12.6 4.6-18.7 4.3m58.1-11.3c-9.1-5.6-18.4-11.4-18.4-20.2v-15.1h31.4v29.8c0 1 .8 1.8 1.8 1.8s1.8-.8 1.8-1.8v-29.8h30.6v15.1c0 8.8-9.4 14.6-18.4 20.2-5.8 3.6-11.3 7-14.3 11.2-3.3-4.2-8.8-7.7-14.5-11.2m31.1 4c7.9-4.9 16.7-10.3 19.6-18.4 2.2 11.8 7.3 20.3 15.1 25.4 2.4 1.5 4.9 2.7 7.5 3.5h-55.5c2.3-3.7 7.7-7 13.3-10.5m37.3 3c-8.6-5.5-13.3-16.3-14.1-31.8v-8.6c3.9 1.6 10.3 8.1 14.2 14.6 2.4 4.1 3.6 8 4.7 11.8.4 1.5.9 2.9 1.4 4.4 2.7 7.8 8.3 11.8 13.4 14-6.3.3-13.5-.5-19.6-4.4M398 565.4c-.3-.2-.6-.4-1-.4s-.7.1-1 .4h-51.3v-5.7h104.7v5.7zm-45.2 4.9h1.2c-4.7 3.1-10 9.3-13.2 14.6-2.7 4.4-3.9 8.6-5.1 12.6-.4 1.4-.9 2.9-1.3 4.3-2.6 7.4-8.1 10.9-12.8 12.5 2.4-4.3 3.1-10.5 3.7-16.2.4-3.3.7-6.5 1.4-8.3 6.4-18.3 24.9-19.4 26.1-19.5m127.6 54.5c3.4 0 6.1 2.7 6.1 6.1s-2.7 6.1-6.1 6.1H313.8c-3.4 0-6.1-2.7-6.1-6.1s2.7-6.1 6.1-6.1zm-20.2-23.1c-.5-1.4-.9-2.8-1.3-4.3-1.2-4-2.4-8.1-5.1-12.6-3.2-5.4-8.5-11.5-13.2-14.6h.3c1.2.1 19.8 1.2 26.2 19.5.6 1.8 1 5 1.4 8.3.6 5.5 1.3 11.4 3.5 15.7-4.5-1.7-9.5-5.2-11.8-12m-132.8-56.8c-1.2.1-2.1 1.2-2.1 2.3 0 1.2.9 2.2 2.1 2.3 1.1.1 2.2 1.1 3.3 2.4l-4.5 9.3q-2.55 5.4-6.3 6.6c-3.3 1.1-6.7-.6-8-1.3l-21.3-12.3-1-.6c-1.3-.8-4.4-2.9-5.2-6.3-.6-2.6.3-5.5 2.6-8.8l17.3-25.4c7.4 6.5 18.4 11.2 35.6 13.8v8.2c-3.6 1-6.1 3.7-8.1 6.1-1.5 1.8-3 3.5-4.4 3.7m-14 36.8c-2.1 3.7-6.8 4.9-10.5 2.8l-22.7-13.1s-.1 0-.1-.1l-1.6-1c-1.8-1-3-2.7-3.6-4.7-.5-2-.3-4.1.8-5.8 1.4-2.5 4-3.8 6.7-3.8 1.3 0 2.6.3 3.8 1l22.3 12.9 1 .6 1.1.6c3.7 2.2 4.9 6.9 2.8 10.6M206 487.5c-1-1.8-1.3-3.8-.8-5.8s1.8-3.6 3.6-4.7c1.2-.7 2.5-1 3.8-1 .7 0 1.3.1 2 .3 2 .5 3.6 1.8 4.7 3.6l14.1 24.4c1 1.8 1.3 3.8.8 5.8s-1.8 3.6-3.6 4.7c-3.7 2.1-8.4.9-10.5-2.8zm6.2 20.9L185.8 527c-.6.4-1.2.8-1.9 1.3l-1.2.9-1 .7c-7.9 5.5-18.3 2.3-22.2.8.6-4.1 3.1-14.7 11.8-18.8l33.9-15.7zm11.8-29.8c-.8-1.3-2.4-4.7-1.3-8.1q1.2-3.75 6.6-6.3l49.1-23.6c.6 1.4 1.2 2.8 1.8 4.3 3.5 10 5.3 19.3 7.1 28.4.3 1.8.7 3.6 1 5.3l-36.4 24.8c-3.2 2.3-6.2 3.1-8.7 2.6-3.4-.8-5.5-3.8-6.3-5.2zm60.6-35.3c-5.6-15.6-14.7-21.8-22.1-26.7-5.4-3.6-9.7-6.5-11.3-12.2 1.1 1.2 7.3 7.8 20.3 11.4 15.9 4.4 22.2 11.5 26.6 30.1 1.3 5.4 2.1 11.3 3 17.5 3.3 23.6 7 50 37.8 58.5-38.7-6.2-42.2-24.5-47-49.6-1.7-8.7-3.6-18.7-7.3-29m-33.5-29.7-34.7 2.6c-3.9.3-6.9-.4-8.9-2.1-2.6-2.4-2.9-6.1-2.9-7.6v-25.7c0-1.5.3-5.3 2.9-7.6 1.6-1.5 4-2.2 7-2.2.6 0 1.2 0 1.9.1L337 380h.1l12.9 1h-.1l1.7.1v25.3c-3.4-2.1-6.7-4.2-7-5.9-.2-1.1-1.2-2-2.3-2s-2.1.8-2.3 2c-.5 3-5.2 5.8-9.7 8.6-.4.2-.8.5-1.1.7-1.7-1.6-3.9-2.9-5.8-4.1-2.4-1.5-5.1-3.2-5.4-4.5-.2-1.1-1.2-2-2.3-2s-2.1.8-2.3 2c-.2 1.3-3 3-5.4 4.5-2.1 1.3-4.5 2.8-6.3 4.7-7-3.5-15.6-5.8-26.4-6.4-12.9-.7-20.6-2.9-25.9-7.3-.7-.6-1.7-.7-2.5-.3s-1.4 1.2-1.4 2.1c.2 7.1 2.4 11.6 5.6 15.1M206 299.7l14.1-24.4c1-1.8 2.7-3 4.7-3.6.7-.2 1.3-.3 2-.3 1.3 0 2.6.3 3.8 1 1.8 1 3 2.7 3.6 4.7.5 2 .3 4.1-.8 5.8l-14.1 24.4c-2.1 3.7-6.8 4.9-10.5 2.8-3.7-2-4.9-6.8-2.8-10.4m-30.2-22.2c-.7-.3-1.4-.6-2.1-1-.5-.2-.9-.4-1.4-.6l-1.1-.5c-8.7-4.1-11.2-14.7-11.8-18.8 3.9-1.5 14.3-4.6 22.2.8l30.6 21.5-7 12.2zm48.2 31.1 12.9-22.3c.8-1.3 2.9-4.4 6.3-5.2.5-.1 1-.2 1.6-.2 2.2 0 4.6.9 7.2 2.8l99.8 68.1 1.7 2.5c-.2.3-.3.7-.3 1.1 0 1.2.9 2.2 2.1 2.3.5.1 1.4 1.2 2.1 2 1.5 1.9 3.7 4.5 7.2 4.5h1.9v.1c-.1.2-.2.4-.3.7-.2 1.3-3.1 3-5.3 4.4-3 1.8-6.4 3.9-8.1 7l-14.5-1.1-109-52.3q-5.4-2.55-6.6-6.3c-1.1-3.3.6-6.7 1.3-8.1M555.9 188c4.2 0 7.7 3.4 7.7 7.7v6.3H230.1v-6.3c0-4.2 3.4-7.7 7.7-7.7zm-178.2-4.7c1.4-1.2 3.1-2 5.1-2H411c2 0 3.7.8 5.1 2zm185.9 23.5v12.1H230.1v-12.1zm0 16.8v6c0 4.2-3.4 7.7-7.7 7.7H237.8c-4.2 0-7.7-3.4-7.7-7.7v-6zm-106.1 70.7c.2 16.9-4 29.1-12.5 36.1-5.1 4.2-11 5.9-16 6.5.5-.3 1-.6 1.5-1 9.5-7.1 14.3-24.2 14.3-50.6 0-4.8 1.5-27.1 28.1-35.5-.5.4-1.1.8-1.6 1.3-13.1 11.6-13.9 36-13.8 43.2m130.3 5.4c1 1.8 1.3 3.8.8 5.8s-1.8 3.6-3.6 4.7c-1.8 1-3.8 1.3-5.8.8s-3.6-1.8-4.7-3.6l-.6-1.1-6.4-11.1-7.1-12.2c-1-1.8-1.3-3.8-.8-5.8s1.8-3.6 3.6-4.7c1.2-.7 2.5-1 3.8-1 2.7 0 5.2 1.4 6.7 3.8zm-6.2-20.8 26.4-18.6c.6-.4 1.2-.8 1.9-1.3l1.2-.9 1-.7c7.9-5.5 18.3-2.3 22.2-.9-.7 4.1-3.2 14.7-11.8 18.8L588.6 291zm-13.7 26.6 1.9 3.2c.8 1.3 2.4 4.7 1.3 8.1q-1.2 3.75-6.6 6.3l-108.9 52.4-13.2 1c-1.7-3-5.2-5.1-8.1-6.9-1.9-1.1-4.2-2.5-5-3.7v-1.4h2.5c3.6 0 5.7-2.6 7.2-4.5.7-.8 1.6-2 2.1-2 1.2-.2 2.1-1.2 2.1-2.3 0-1.2-.8-2.1-2-2.3l.9-1.3 99.9-68.2c3.2-2.3 6.2-3.1 8.7-2.6 3.4.8 5.6 3.9 6.3 5.2zm9.4 65.5c3.9-.4 6.9.4 8.9 2.1 2.6 2.4 2.9 6.1 2.9 7.7v25.7c0 1.5-.3 5.3-2.9 7.6-1.9 1.8-4.9 2.5-8.9 2.1l-34.2-2.6c3.3-3.5 5.5-8.1 5.5-15.2 0-.9-.5-1.7-1.4-2.1-.8-.4-1.8-.3-2.5.3-5.3 4.4-13 6.5-25.9 7.3-10.3.6-18.7 2.7-25.5 6-1.8-1.7-4-3.1-6-4.4-2.4-1.5-5.1-3.2-5.4-4.5-.2-1.1-1.2-2-2.3-2s-2.1.8-2.3 2c-.2 1.3-3 3-5.4 4.5-2.1 1.3-4.4 2.8-6.2 4.6-.7-.4-1.3-.8-2-1.2-4.5-2.8-9.1-5.7-9.7-8.6-.2-1.1-1.2-2-2.3-2s-2.1.8-2.3 2c-.4 2.1-2.9 4.2-6 6.3v-25.7l35.7-2.7zm-213.4 53.1c-2.9 3.4-4.8 7.3-4.8 12v82.1c-13.5-7.5-15-29-15-38.4v-53.5c0-1-.8-1.8-1.8-1.8s-1.8.8-1.8 1.8v53.5c0 8.4 1.2 25.9 10.5 36.3-5.9-3.9-11.2-10-13.9-20.2-1.6-5.9-2.5-13-3.5-20.6-2.1-15.8-4.5-33.7-13.1-47.6v-1.3c0-5.6 6.3-9.5 12.3-13.3 3.8-2.4 7.5-4.6 9.7-7.4 2 1.9 4.8 3.6 7.9 5.5 5.7 3.4 12.1 7.2 13.5 12.9M440 247.7c-1.2.8-2.4 1.6-3.5 2.6-1.5-1.2-3.1-2.2-4.6-3.1-2.3-1.4-5.1-3.1-5.3-4.4 0-.3-.1-.5-.3-.8h28c-5.1 1.1-9.9 2.9-14.3 5.7m34-1.9c-16.4 4.9-32.7 17.3-32.7 39.5 0 31.3-7 43.2-12.8 47.7-3 2.3-5.9 2.7-7.7 2.7 1-6 2.9-20.5 6.4-55.6 1.3-13.3 6.5-22.9 15.2-28.5 9.5-6 21.6-6.7 31.6-5.8m-44.6 5.4q1.95 1.2 3.6 2.4-6 6.6-8.7 16.5c-.2-1.1-.4-2.1-.7-2.9-1.7-5.1-5.8-8.9-10.1-12.1 1.3-1.4 3.4-2.6 5.4-3.9 1.9-1.2 3.8-2.3 5.2-3.6 1.5 1.3 3.4 2.4 5.3 3.6m-7.5-8.4c-.2 1.3-3.1 3-5.3 4.4-2.4 1.4-5 3-6.9 5.2-.2-.1-.3-.2-.5-.3-4.7-3.2-9.1-6.2-9.6-9.4 0-.2-.1-.4-.2-.6h22.8c-.2.2-.3.4-.3.7m-15.4 13.1c5.4 3.7 10.9 7.4 12.7 12.7 1.8 5.4 2.2 24.5.1 42.1l-3.5 26.5h-17.1v-74.1c0-1-.8-1.8-1.8-1.8s-1.8.8-1.8 1.8v74.1h-16.2l-3.5-26.6c-2-18.6-1.7-37.1-.1-42.1 1.7-5.3 7.3-9.1 12.7-12.7 3.6-2.4 7.1-4.8 9.3-7.6 2.2 2.9 5.6 5.2 9.2 7.7m-11.6-13.3c-.6 3.2-5 6.2-9.6 9.4-.1.1-.2.2-.4.3-1.8-2-4.3-3.5-6.6-4.9s-5.1-3.1-5.3-4.4c-.1-.4-.2-.7-.4-.9h22.5c-.1.1-.1.3-.2.5m-19 8.8c1.9 1.1 3.8 2.3 5.1 3.6-4.4 3.2-8.6 7-10.2 12.2-.2.7-.4 1.5-.6 2.5q-2.7-9.45-8.4-15.9c1.1-.8 2.4-1.6 3.7-2.4 1.9-1.2 3.8-2.3 5.2-3.6 1.4 1.3 3.3 2.4 5.2 3.6m-7.5-8.4c-.2 1.3-3.1 3-5.3 4.4-1.5.9-3.1 1.9-4.6 3.1-1.2-1-2.4-1.9-3.7-2.7-4.4-2.8-9.3-4.6-14.2-5.7h28.3c-.3.2-.5.5-.5.9m-16.2 8.7c8.8 5.6 13.9 15.2 15.2 28.5 3.5 34.9 5.5 49.4 6.4 55.5-1.4.2-5 .3-8.8-2.6-5.8-4.5-12.8-16.4-12.8-47.7 0-22-16.1-34.4-32.4-39.4 10.1-1.1 22.7-.6 32.4 5.7m19 90.3h53.3v4.7h-53.3zm60.5 9.4c1.2 0 2.2 1 3.6 2.7.4.5.8.9 1.2 1.4-.4.5-.8.9-1.2 1.4-1.4 1.7-2.3 2.7-3.6 2.7h-67.2c-1.2 0-2.2-1-3.6-2.7-.4-.5-.8-.9-1.2-1.4.4-.5.8-.9 1.2-1.4 1.4-1.7 2.3-2.7 3.6-2.7zm20.1 54.6c2.3 2.7 5.8 4.9 9.5 7.1 6.1 3.8 12.3 7.7 12.3 13.3v1.5c-8.6 13.9-10.9 31.6-13 47.4-1 7.6-2 14.7-3.5 20.6-3 11.5-9.3 17.8-16.1 21.5 10.4-10.2 11.7-28.9 11.7-37.6v-53.5c0-1-.8-1.8-1.8-1.8s-1.8.8-1.8 1.8v53.5c0 9.3-1.5 30.9-15.1 38.4v-82.1c0-4.3-1.6-8-4-11.1 1-4.9 6.7-8.4 12.2-11.9 3.8-2.3 7.3-4.5 9.6-7.1m17.9 7c1.3-1.2 3-2.3 4.7-3.3 1.9-1.2 3.8-2.3 5.2-3.7 1.4 1.4 3.3 2.5 5.2 3.7 1.4.9 2.9 1.8 4.1 2.8-4.5 2.8-8.2 6.1-11.2 9.8-1.4-3.8-4.5-6.7-8-9.3m-31-3.2c-4.2 2.6-8.6 5.5-11.2 9.4v-39.7c0-1-.8-1.8-1.8-1.8s-1.8.8-1.8 1.8V419c-3-2.4-6.3-4.5-9.6-6.5v-32c0-2.7 3.5-4.9 6.9-6.9 1.9-1.2 3.8-2.3 5.2-3.6 1.4 1.3 3.3 2.5 5.2 3.6 3.4 2.1 6.9 4.2 6.9 6.9v29.3zm-42.5 13.7c-1 0-1.8.8-1.8 1.8v98.3h-22.7c-.8-.2-1.5-.4-2.4-.6-1.7-.4-3.6-.8-5.5-1.4v-85.5c0-8.8 9.4-14.6 18.4-20.2 5.8-3.6 11.3-7 14.3-11.2 3.1 4.2 8.6 7.6 14.3 11.2 9.1 5.6 18.4 11.4 18.4 20.2v85.7c-1.6.4-3.1.8-4.5 1.1l-2.4.6H398v-98.3c0-.9-.8-1.7-1.8-1.7m6.6-49.9c3.4 2.1 6.9 4.2 6.9 6.9v29c-5.5-3.5-10.1-7-10.7-10.9-.1-.6-.5-1.1-.9-1.5q.3-.45.3-.9v-16.8c0-1-.8-1.8-1.8-1.8s-1.8.8-1.8 1.8v16.8c0 .4.1.7.3 1-.4.3-.7.8-.8 1.4-.6 3.4-4.3 6.6-8.9 9.7v-27.8c0-2.7 3.5-4.9 6.9-6.9 1.9-1.2 3.8-2.3 5.2-3.6 1.4 1.3 3.3 2.4 5.3 3.6m-3.2-9.2h24.9v.1c-.1.2-.2.4-.3.7-.2 1.3-3.1 3-5.3 4.4-2.3 1.4-5 3-6.9 5.2-1.9-2.1-4.5-3.8-6.9-5.2-2.3-1.4-5.1-3.1-5.3-4.4 0-.3-.1-.6-.2-.8m-4.4.8c-.2 1.3-3.1 3-5.3 4.4-2.3 1.4-5 3-6.9 5.2-1.9-2.1-4.5-3.8-6.9-5.2-1.9-1.1-4.2-2.5-5-3.7v-1.4h24.3c0 .1-.1.4-.2.7m-21.5 8.4c3.4 2.1 6.9 4.2 6.9 6.9v30.9c-.3.2-.6.4-.9.5-3.5 2.1-7.1 4.4-10.3 6.9v-39.3c0-1-.8-1.8-1.8-1.8s-1.8.8-1.8 1.8v38c-2.4-3.4-6-6-9.6-8.2v-28.8c0-2.7 3.5-4.9 6.9-6.9 1.9-1.2 3.8-2.3 5.2-3.6 1.6 1.3 3.5 2.4 5.4 3.6m-57.2 48.6c-2.9-3.5-6.4-6.7-10.5-9.3 1.3-1.1 2.9-2.2 4.6-3.2 1.9-1.2 3.8-2.3 5.2-3.7 1.4 1.4 3.3 2.5 5.2 3.7 1.5.9 2.9 1.8 4.1 2.8-3.8 2.7-7.1 5.7-8.6 9.7m12.4 53.8c1 7.7 2 15 3.6 21.2 3.2 12 9.5 19 16.4 23.3-37.1-5.1-40.8-31.6-44.4-57.4-.9-6.3-1.7-12.3-3-17.9-4.7-19.7-12.1-28-29.1-32.7-5.9-1.6-10.3-3.9-13.3-6 5.2 1.4 10.8 1.9 16 2.2 45.2 2.5 49.8 36.9 53.8 67.3m15.8 53.1h104.7v5.7H344.7zm100.8-8.8c6.8-4.3 13-11.3 16.1-23.1 1.6-6.2 2.6-13.5 3.6-21.2 4-30.3 8.6-64.7 53.8-67.2 4.7-.3 9.7-.7 14.5-1.9-3 1.9-7.2 4.1-12.8 5.6-17.1 4.7-24.4 13-29.1 32.7-1.3 5.6-2.2 11.5-3 17.9-3.5 25.4-7.2 51.7-43.1 57.2m-6.9-171.7-1.2.8c-1.4-1.4-3.2-2.7-5.7-2.7h-2.5v-5c5.7-.6 12.7-2.6 18.8-7.6.5-.4.8-.8 1.3-1.2zm35.9-94c4.9-4.3 11.2-6 18.9-4.9 1.2.2 2.3-.6 2.6-1.8s-.4-2.4-1.5-2.8c-.5-.2-5.5-1.8-12.7-3h27.7c-.1 2-1 4.3-2.7 6.7L458 320.3c2.9-7.1 4.4-15.7 4.3-25.9-.2-6.8.5-29.5 12.2-39.8M313 242c-7.2 1.2-12.2 2.9-12.7 3-1.2.4-1.8 1.6-1.5 2.8s1.4 2 2.6 1.8c7.6-1 14 .6 18.9 4.9 11.7 10.4 12.4 33 12.3 39.7-.1 12.6 2.1 22.8 6.5 30.5l-52-76.1q-2.55-3.6-2.7-6.6zm24.2 52.3c.1-7.2-.7-31.6-13.9-43.3-.2-.2-.5-.4-.7-.5 24.6 9 26 30.2 26 34.8 0 26.4 4.8 43.5 14.3 50.6.4.3.8.6 1.2.8-4.6-.7-9.9-2.5-14.5-6.3-8.4-6.9-12.6-19.1-12.4-36.1m9.5 39.8c6.5 5.3 13.8 7.2 19.8 7.7v4.9h-1.9c-3.1 0-5.1 2-6.6 3.7l-2.7-1.9-13-19.1c1.3 1.7 2.7 3.3 4.4 4.7m106.1 188.3c32.2-8.1 36-34.9 39.3-58.9.9-6.2 1.7-12.1 3-17.5 4.5-18.7 10.7-25.7 26.6-30.1 14.1-3.9 20.2-11.3 20.5-11.6l.3-.6c.3-.1.6-.3.8-.4-1.4 6.5-5.9 9.5-11.7 13.4-7.4 4.9-16.5 11-22.1 26.7-3.7 10.3-5.6 20.3-7.3 29.1-4.8 25.5-8.4 44-49.4 49.9m54.1-49.1c1.7-9 3.5-18.4 7.1-28.4.5-1.5 1.1-2.8 1.7-4.1l48.8 23.5q5.4 2.55 6.6 6.3c1.1 3.4-.6 6.8-1.3 8.1L556.9 501c-.8 1.3-2.9 4.4-6.3 5.2-2.6.6-5.5-.3-8.8-2.6l-36-24.6c.4-1.9.8-3.8 1.1-5.7m53.4 31 .6-1 6.4-11.1 7.1-12.2c2.1-3.7 6.8-4.9 10.5-2.8s4.9 6.8 2.8 10.5L573.6 512c-1 1.8-2.7 3-4.7 3.6-2 .5-4.1.3-5.8-.8-3.6-2.1-4.9-6.8-2.8-10.5m57.7 5.5c.7.3 1.3.6 2 1 .4.2.7.3 1.1.5l1.4.7c8.7 4.1 11.2 14.7 11.8 18.8-3.9 1.5-14.3 4.6-22.2-.9l-30.5-21.5 7-12.2zm5.1 43.3c.3-1.4.5-2.8.4-4.3-.1-4-1.4-7.7-4-11.3 1.1.1 2.2.2 3.3.2 4.6 0 8.8-1.1 11.6-2-3.5 5.9-7.3 11.7-11.3 17.4m15.6-24.8c-.7-3.5-2.3-9-5.8-13.8.7.1 1.5.2 2.2.2 3.5 0 6.7-.8 9.5-2.4 1.3-.8 2.5-1.6 3.6-2.6-2.9 6.4-6.1 12.6-9.5 18.6m3.6-20.1c-4.8 2.7-11 2.3-18.7-1l-3.8-1.7c-18-8.6-25.8-12.1-29.1-13.6l.1-.1c.9-1.6 2.6-3.9 5.6-5.1 5.6-2.3 13.8-.4 23.8 5.5 5.6 3.3 19.7 10.7 29.2 7.3.1 0 .3-.1.4-.2-1.5 3.3-3.8 6.9-7.5 8.9m14.2-18.4q-.45-.9-1.5-1.2c-1.2-.3-2.3.4-2.7 1.5-.9 2.4-2.3 4-4.5 4.8-6.2 2.2-17-2.1-25.2-6.9-11.5-6.8-20.9-8.7-28-5.8-.4.2-.8.4-1.2.5-.3-3.9-2.5-7.7-6.2-9.8-3.6-2-7.7-2.1-11.2-.6 0-1.1-.2-2.2-.5-3.3-1.2-3.8-4.3-6.9-9.1-9.1l-48.6-23.4c4.8-8.2 10.9-12.3 16.4-16 1.2-.8 2.5-1.7 3.7-2.5l38.9 2.9c.8.1 1.6.1 2.3.1 4.2 0 7.6-1.2 10.2-3.5.9-.8 1.6-1.7 2.1-2.6 2.3 3.1 5.9 5.1 10 5.1 4.3 0 8-2.2 10.3-5.5.2.3.5.7.7 1 4.7 6.1 13.9 9.1 27.1 9 9.5-.1 21 1.6 25.2 6.6 1.5 1.7 2 3.8 1.5 6.4-.2 1.2.5 2.3 1.6 2.7.2.1.5.1.7.1q.6 0 1.2-.3c-2.8 17.3-7.3 33.9-13.2 49.8m-62.7-82v-28.1c0-4.2 3.4-7.7 7.7-7.7s7.7 3.4 7.7 7.7v28.2c0 4.2-3.4 7.7-7.7 7.7s-7.7-3.6-7.7-7.8m56.2-29.2-4 .4c-19.9 1.5-28.5 2.4-32.1 2.8v-.8c.1-1.8.6-4.3 2.4-6.6 3.6-4.7 11.4-7.1 22.6-7.1h.7c6.5.1 22.4-.6 28.9-8.3l.3-.3c.4 3.7.2 7.9-2 11.6-2.9 4.6-8.5 7.4-16.8 8.3m21 15c-2.6 3.2-10.1 11.2-19.7 10.4l-37.2-3.3v-14l32.2-2.9c.7-.1 1.4-.1 2.2-.2.5 0 1-.1 1.5-.2l1.3-.1c9.6-.9 17.1 7.1 19.7 10.3m-22.7 14.9c9.2.7 15.5 3.6 18.5 8.6 2.2 3.6 2.4 7.9 2 11.6l-.3-.3c-6.2-7.4-21.3-8.3-28.2-8.3h-.7c-11.6.1-19.6-2.4-23.3-7.1-1.8-2.3-2.3-4.8-2.4-6.6v-.8c3.7.3 12.8 1.2 34.4 2.9m24.3 10.3q-.6-2.1-1.8-4.2c-2-3.4-5.1-6-9.1-7.9 5.5-2.3 9.7-6.4 12.1-9.1-.2 7.3-.6 14.3-1.2 21.2m0-50.4c.6 6.9 1 13.9 1.1 21-2.4-2.7-6.5-6.7-12-9q6-2.7 9-7.8c.9-1.4 1.5-2.8 1.9-4.2m-20.3-71.3c.4 1.1 1.6 1.8 2.7 1.5q1.05-.3 1.5-1.2c5.9 15.9 10.4 32.5 13.3 49.7-.6-.3-1.2-.5-1.9-.3-1.1.4-1.8 1.5-1.6 2.7.5 2.5 0 4.6-1.5 6.4-4.2 5-15.7 6.7-25.2 6.6-13.2-.1-22.4 2.9-27.1 9-.3.4-.5.7-.7 1.1-2.2-3.3-6-5.4-10.2-5.4-4.1 0-7.7 2-10 5.1-.6-.9-1.2-1.8-2.1-2.6-3-2.7-7.2-3.8-12.4-3.4l-108.5 8.2 98-47.1c4.8-2.2 7.9-5.3 9.1-9.2.4-1.1.5-2.2.5-3.3.6.3 1.2.5 1.8.7 1.1.3 2.2.4 3.2.4 2.1 0 4.3-.6 6.2-1.7 2.9-1.7 4.9-4.3 5.8-7.5.2-.8.3-1.5.4-2.3.4.2.7.4 1.1.5 2.1.9 4.5 1.3 7 1.3 5.9 0 12.9-2.4 20.9-7.1 8.1-4.8 19-9.1 25.2-6.9q3.15 1.2 4.5 4.8m-2.9-9.2c-9.4-3.4-23.5 3.9-29.2 7.3-9.9 5.9-18.1 7.8-23.7 5.5-3.1-1.3-4.8-3.5-5.7-5.2v-.1c3.5-1.5 11.8-5.2 31.3-14.6 8.4-4 15.2-4.6 20.3-1.8 3.7 2.1 6 5.6 7.5 9-.2 0-.4-.1-.5-.1m-1.2-10.3c-1.1-1-2.3-1.9-3.6-2.6-3.5-1.9-7.4-2.7-11.8-2.2 3.6-4.8 5.2-10.3 5.9-13.8 3.4 5.9 6.6 12.2 9.5 18.6m-25.1-43.4c4 5.6 7.8 11.4 11.3 17.4-3.4-1.2-8.9-2.5-14.8-1.8 2.5-3.6 3.9-7.4 3.9-11.3.1-1.5-.1-3-.4-4.3m-8.3-6.8c2.2 3 4.1 6.8 4.1 11-.1 5.5-3.6 10.8-10.3 15.7l-3.2 2.3c-16.5 11.3-23.5 16.3-26.4 18.5l-.4-.7c-.9-1.6-1.6-4-1.3-6.8.8-6 6.5-12.2 16.6-17.9 5.7-3.2 19.1-11.8 20.9-21.6-.1-.2-.1-.4 0-.5m-45-45.1c.9.8 2.3.7 3.1-.1.5-.4.7-1 .7-1.6 13.1 10.9 25.2 23 36.2 36.2-.6 0-1.1.3-1.6.7-.8.9-.8 2.2-.1 3.1 1.7 2 2.3 4 1.9 6.3-1.2 6.4-10.3 13.7-18.6 18.4-11.6 6.5-18 13.7-19 21.4-.1.4-.1.9-.1 1.3-3.6-1.7-7.9-1.7-11.6.4-3.6 2.1-5.7 5.6-6.1 9.4-.9-.5-2-.9-3.1-1.2-3.9-.9-8.1.2-12.5 3.3l-89.9 61.3 61.3-89.8c2.3-3.2 3.5-6.4 3.6-9.4h41.7c6.8 0 12.4-5.6 12.4-12.4v-33.9c0-6.8-5.6-12.4-12.4-12.4.5 0 1.1.1 1.6.2 2-1.6 4-2.7 6-3 2.5-.5 4.5.2 6.5 1.8m-7.1-6.5c-4.4.8-8.5 3.8-12 7.5h-15.3c5.2-7.6 10.8-11.6 16.7-11.6 4.1 0 8 1.9 11 4.1zm-6.3-8.4c-1.3-.3-2.6-.5-4-.5h-.2c-4 .1-7.8 1.4-11.4 4 .7-5.9-.6-11.5-1.8-14.9q8.85 5.4 17.4 11.4m-23.3 11-3.5 4.9H508l5-10.8c.3-.6.6-1.3.9-1.9.2-.4.4-.9.6-1.3l.6-1.2c4.1-8.7 14.7-11.2 18.8-11.8 1.5 3.7 4.7 14.2-.8 22.1m-1.5-26.6c-3.5.7-9 2.3-13.7 5.8.4-4.4-.3-8.3-2.3-11.7-.8-1.3-1.6-2.5-2.6-3.6 6.3 2.9 12.5 6.1 18.6 9.5m-20.1-3.6c2.7 4.8 2.3 11.1-1 18.7l-1.7 3.7c-2.4 5-4.4 9.2-6 12.7h-13c1-3.9 2.8-8.2 5.7-13 3.3-5.6 10.7-19.7 7.3-29.2-.1-.1-.1-.3-.2-.4 3.2 1.5 6.8 3.8 8.9 7.5m-76.9-22.5c1.7-1.5 3.8-2 6.4-1.5 1.2.2 2.3-.5 2.7-1.6.2-.7.1-1.3-.3-1.9 17.1 2.9 33.7 7.4 49.7 13.3-.6.3-1 .8-1.1 1.5-.3 1.2.4 2.3 1.5 2.7 2.4.9 4 2.3 4.8 4.5 2.2 6.2-2.1 17-6.9 25.2-3.3 5.6-5.5 10.8-6.5 15.4H422c-1-1.8-2.3-3.4-4-4.5.3-.2.7-.5 1-.7 6.1-4.7 9.1-13.8 9-27.1-.1-9.5 1.6-21.1 6.6-25.3m-2.7-3.9-.3.3c-7.7 6.5-8.4 22.4-8.3 28.9.1 11.5-2.4 19.6-7.1 23.3-2.3 1.8-4.8 2.3-6.7 2.4h-.8c.4-3.8 1.4-12.8 3-34.4.7-9.2 3.6-15.5 8.6-18.5 3.6-2.2 7.9-2.4 11.6-2m-9.8-3.9q-2.1.6-4.2 1.8c-3.4 2-6 5.1-7.9 9.1-2.3-5.5-6.4-9.7-9.1-12.1 7.2.2 14.2.6 21.2 1.2m-25.3 1.6c3.2 2.6 11.2 10.1 10.4 19.6l-3.3 37.2h-14l-2.9-32.2c-.1-.7-.1-1.5-.2-2.2 0-.5-.1-1-.2-1.5l-.1-1.3c-.8-9.6 7.1-17 10.3-19.6m-4.1-2.7c-2.7 2.4-6.7 6.5-9 12q-2.7-6-7.8-9-1.95-1.2-4.2-1.8 10.35-1.05 21-1.2m-19.3 7c4.7 2.8 7.5 8.4 8.4 16.7l.4 4.1c1.5 19.9 2.4 28.4 2.8 32h-.8c-1.8-.1-4.3-.5-6.6-2.3-4.8-3.7-7.3-11.8-7.2-23.3.1-6.5-.6-22.4-8.3-28.9l-.3-.3c3.7-.4 8-.2 11.6 2m-77.8 18.9c.8-2.1 2.3-3.6 4.8-4.5 1.1-.4 1.8-1.6 1.5-2.7-.2-.7-.6-1.2-1.1-1.5 15.9-5.9 32.5-10.4 49.7-13.3-.3.6-.5 1.2-.3 1.9.4 1.1 1.5 1.8 2.7 1.6 2.5-.5 4.6 0 6.4 1.5 5 4.2 6.7 15.8 6.6 25.2-.1 13.3 2.9 22.4 9 27.1.4.3.7.5 1.1.7-1.7 1.2-3.1 2.7-4 4.5h-62.9c-1-4.6-3.1-9.8-6.5-15.4-4.9-8-9.2-18.9-7-25.1m-4.3-2c-.1.1-.1.3-.2.4-3.4 9.4 3.9 23.5 7.3 29.2 2.8 4.8 4.7 9.1 5.7 13h-13c-1.9-4-4.2-8.9-7.1-14.8-4-8.4-4.6-15.2-1.8-20.3 2.1-3.7 5.7-6 9.1-7.5m-10.5 1.6c-1 1.1-1.9 2.3-2.6 3.6-1.9 3.5-2.7 7.4-2.2 11.8-4.8-3.6-10.3-5.2-13.8-5.9 6-3.4 12.2-6.6 18.6-9.5m-21.1 13.9c4.1.7 14.7 3.2 18.8 11.8l7.1 15.3H264l-.6-.8c-.4-.6-.8-1.2-1.3-1.8l-.9-1.2-.8-1.1c-5.3-7.9-2.1-18.3-.7-22.2m-4.9-.1c-1.2 3.4-2.5 8.9-1.8 14.8-3.6-2.5-7.4-3.9-11.3-3.9-1.5 0-2.9.1-4.2.4 5.6-4 11.4-7.8 17.3-11.3m-13.4 15.6h.2c5.5.1 10.8 3.6 15.7 10.3l.9 1.3H243c-3.5-3.7-7.6-6.7-12-7.5-.1 0-.3 0-.4-.1 2.9-2.1 6.7-4 10.8-4m-55.9 45.9c-.4-.5-1-.7-1.6-.7 10.9-13.1 23-25.2 36.2-36.2 0 .6.3 1.1.7 1.6.9.8 2.2.8 3.1.1 2-1.7 4-2.3 6.3-1.9q3 .6 6 3c.5-.1 1-.2 1.6-.2-6.8 0-12.4 5.6-12.4 12.4v33.9c0 6.8 5.6 12.4 12.4 12.4h41.8q.15 4.5 3.6 9.3l61.3 89.9-89.8-61.3c-4.4-3.1-8.6-4.2-12.5-3.3-1.2.3-2.2.7-3.1 1.2-.1-.6-.1-1.3-.3-1.9-.9-3.2-2.9-5.9-5.8-7.5-3.7-2.1-8-2.1-11.6-.4 0-.4-.1-.8-.1-1.2-1-7.6-7.4-14.8-19-21.4-8.2-4.6-17.4-11.9-18.6-18.4-.4-2.2.2-4.3 1.9-6.3.7-.9.7-2.2-.1-3.1m-6.5 9.8c0 .1 0 .3.1.4 1.8 9.9 15.2 18.4 20.9 21.6 10 5.7 15.8 11.8 16.6 17.8.4 2.9-.4 5.3-1.3 6.9l-.4.7c-3-2.3-10.4-7.6-28.3-19.8-7.7-5.2-11.6-10.8-11.7-16.7-.1-4.1 1.9-7.9 4.1-10.9m-8.4 6.8c-.3 1.4-.5 2.8-.4 4.3.1 4 1.4 7.8 4 11.4-5.9-.7-11.5.7-14.9 1.8 3.5-6 7.3-11.9 11.3-17.5M155 258.9c.7 3.5 2.3 9 5.8 13.7-4.4-.4-8.3.3-11.7 2.3-1.3.8-2.5 1.7-3.6 2.6 3-6.3 6.1-12.5 9.5-18.6m-3.6 20.1c4.8-2.7 11.1-2.3 18.7 1l3.7 1.7c18 8.6 25.8 12.2 29.2 13.6l-.1.1c-.9 1.6-2.6 3.9-5.6 5.1-5.6 2.3-13.8.4-23.8-5.5-4.6-2.7-14.9-8.1-23.7-8.1-1.9 0-3.8.3-5.5.9-.1.1-.3.1-.4.2 1.5-3.3 3.8-6.9 7.5-9m-14.2 18.4q.45.9 1.5 1.2c1.2.3 2.3-.4 2.7-1.5.9-2.4 2.3-4 4.5-4.8 6.2-2.2 17 2.1 25.2 6.9 8 4.7 15 7.1 20.9 7.1 2.6 0 4.9-.4 7-1.3.4-.2.8-.4 1.2-.5.3 3.9 2.5 7.7 6.2 9.8 1.9 1.1 4.1 1.7 6.2 1.7 1.7 0 3.4-.4 5-1.1 0 1.1.2 2.2.5 3.3 1.2 3.8 4.3 6.9 9.1 9.1l98 47.1-108.5-8.2c-5.3-.5-9.5.7-12.5 3.4-.9.8-1.6 1.7-2.1 2.6-2.3-3.1-5.9-5.1-10-5.1-4.3 0-8 2.2-10.3 5.5-.2-.3-.5-.7-.7-1-4.7-6.1-13.8-9.1-27.1-9-9.4.1-21-1.6-25.2-6.6-1.5-1.7-2-3.8-1.5-6.4.2-1.2-.5-2.3-1.6-2.7-.7-.2-1.3-.1-1.9.3 3-17.2 7.5-33.8 13.4-49.8m62.8 82.1v28.1c0 4.2-3.4 7.7-7.7 7.7-4.2 0-7.7-3.4-7.7-7.7v-28.2c0-4.2 3.4-7.7 7.7-7.7 4.2.1 7.7 3.6 7.7 7.8m-56.3 29.2 4.1-.4c19.9-1.5 28.4-2.4 32-2.8v.8c-.1 1.8-.6 4.3-2.3 6.6-3.7 4.8-11.8 7.2-23.3 7.2-6.5-.1-22.4.6-28.9 8.3l-.3.3c-.4-3.7-.2-7.9 2-11.6 2.8-4.7 8.4-7.5 16.7-8.4m-21-15c2.6-3.2 10-11.2 19.6-10.4l37.2 3.3v14l-32.2 2.9c-.7.1-1.5.1-2.2.2-.5 0-1 .1-1.5.2l-1.3.1c-9.5.8-17-7.1-19.6-10.3m22.8-14.9c-9.2-.7-15.5-3.6-18.5-8.6-2.2-3.6-2.4-7.9-2-11.6l.3.3c6.5 7.7 22.4 8.4 28.9 8.3 11.6-.1 19.6 2.4 23.3 7.1 1.8 2.3 2.3 4.8 2.4 6.6v.8c-3.8-.4-12.8-1.3-34.4-2.9m-24.4-10.4q.6 2.1 1.8 4.2c2 3.4 5.1 6 9.1 7.9-5.5 2.3-9.7 6.4-12.1 9.1.2-7.2.6-14.2 1.2-21.2m0 50.4c-.6-6.9-1-13.9-1.1-21 2.4 2.7 6.5 6.7 11.9 9q-6 2.7-9 7.8-1.05 2.1-1.8 4.2m20.4 71.4c-.4-1.1-1.6-1.8-2.7-1.5q-1.05.3-1.5 1.2c-5.9-15.9-10.4-32.5-13.3-49.7q.6.3 1.2.3c.2 0 .5 0 .7-.1 1.1-.4 1.8-1.5 1.6-2.7-.5-2.5 0-4.6 1.5-6.4 4.2-5 15.8-6.7 25.2-6.6 13.3.1 22.4-2.9 27.1-9 .3-.4.5-.7.7-1.1 2.2 3.3 6 5.4 10.2 5.4 4.1 0 7.7-2 10-5.1.6.9 1.2 1.8 2.1 2.6 2.5 2.3 5.9 3.5 10.2 3.5.7 0 1.5 0 2.3-.1l39.3-3c1.2.9 2.5 1.7 3.8 2.6 5.5 3.6 11.5 7.7 16.3 15.8l-48.9 23.5c-4.8 2.2-7.9 5.3-9.1 9.1-.4 1.1-.5 2.2-.5 3.3-.6-.3-1.2-.5-1.8-.7-3.2-.9-6.5-.4-9.4 1.2-2.9 1.7-4.9 4.3-5.8 7.5-.2.8-.3 1.5-.4 2.3-.4-.2-.7-.4-1.1-.5-7.1-2.9-16.5-1-28 5.8-8.1 4.8-19 9.1-25.2 6.9-2.2-.5-3.7-2.1-4.5-4.5m2.9 9.2c9.4 3.4 23.5-3.9 29.2-7.3 9.9-5.9 18.1-7.7 23.7-5.5 3.1 1.2 4.8 3.5 5.7 5.2l.1.1c-3.5 1.5-11.8 5.2-31.3 14.6-8.4 4-15.2 4.6-20.3 1.8-3.7-2.1-6-5.6-7.5-9 .1 0 .2 0 .4.1m1.1 10.3c1.1 1 2.3 1.9 3.6 2.6 2.8 1.6 6 2.4 9.5 2.4.8 0 1.5-.1 2.3-.2-3.6 4.8-5.2 10.3-5.9 13.8-3.3-6-6.5-12.2-9.5-18.6m25.1 43.4c-4-5.6-7.8-11.4-11.3-17.4 2.8.9 7 2 11.6 2 1 0 2.1-.1 3.2-.2-2.5 3.6-3.8 7.3-3.9 11.3 0 1.5.1 2.9.4 4.3m8.4 6.8c-2.2-3-4.1-6.8-4.1-11 .1-5.4 3.5-10.7 10.2-15.6l3.5-2.5c16.4-11.2 23.4-16.2 26.3-18.4l.4.7c.9 1.6 1.7 4 1.3 6.8-.8 6-6.5 12.2-16.6 17.9-5.7 3.2-19.1 11.8-20.9 21.6-.1.2-.1.3-.1.5m45 45c-.9-.8-2.3-.7-3.1.1-.5.4-.7 1-.7 1.6-13.1-10.9-25.3-23-36.2-36.2.6 0 1.2-.3 1.6-.7.8-.9.8-2.2.1-3.1-1.7-2-2.3-4-1.9-6.3 1.2-6.5 10.3-13.7 18.6-18.4 11.6-6.5 18-13.7 19-21.4.1-.4.1-.9.1-1.3 1.7.8 3.5 1.3 5.4 1.3 2.1 0 4.2-.5 6.2-1.7 3.6-2.1 5.7-5.6 6.1-9.4.9.5 2 .9 3.1 1.2.9.2 1.7.3 2.6.3 3.2 0 6.5-1.2 9.8-3.6l34.8-23.7c2.2 10.1 5.2 19 11.6 26.1l-17.8 26.1c-3.1 4.4-4.2 8.6-3.3 12.5.3 1.2.7 2.2 1.2 3.1-3.8.4-7.4 2.5-9.4 6.1-1.7 2.9-2.1 6.2-1.2 9.4.2.8.5 1.5.8 2.2-.4 0-.8.1-1.3.1-7.6 1-14.8 7.4-21.4 19-4.6 8.2-11.9 17.4-18.4 18.6-2.3.4-4.4-.2-6.3-1.9m7.1 6.6c9.9-1.8 18.4-15.2 21.6-20.9 5.7-10 11.8-15.8 17.8-16.6 2.9-.4 5.3.4 6.9 1.3l.7.4c-2.3 3-7.6 10.4-19.8 28.3-5.2 7.7-10.8 11.6-16.7 11.7-4.2 0-8-1.9-11-4.1.2-.1.3-.1.5-.1m6.3 8.4c1.3.3 2.6.5 4 .5h.2c4-.1 7.8-1.4 11.4-4-.7 5.9.6 11.5 1.8 14.9q-8.85-5.4-17.4-11.4m23.3-11 21.5-30.5 12.2 7-13.6 29.3c-.3.7-.6 1.3-1 2-.2.5-.4.9-.6 1.4l-.5 1.2c-4.1 8.7-14.7 11.2-18.8 11.8-1.6-3.9-4.7-14.3.8-22.2m1.5 26.6c3.5-.7 9-2.3 13.7-5.8-.4 4.4.3 8.3 2.3 11.7.8 1.3 1.6 2.5 2.6 3.6-6.4-3-12.6-6.1-18.6-9.5m20.1 3.6c-2.7-4.8-2.3-11.1 1-18.7l1.7-3.7c8.6-18 12.2-25.9 13.6-29.2l.1.1c1.6.9 3.9 2.6 5.1 5.7 2.3 5.6.4 13.8-5.5 23.7-3.3 5.6-10.7 19.7-7.3 29.2.1.1.1.3.2.4-3.3-1.5-6.9-3.8-8.9-7.5m70.5 24c-1.2-.2-2.3.5-2.7 1.6-.2.7-.1 1.3.3 1.9-17.1-2.9-33.8-7.4-49.7-13.3q.9-.45 1.2-1.5c.3-1.2-.4-2.3-1.5-2.7-2.4-.9-4-2.3-4.8-4.5-2.2-6.2 2.1-17 6.9-25.2 6.8-11.5 8.7-20.9 5.8-28l-.6-1.2c4-.3 7.7-2.5 9.8-6.1s2.1-7.7.6-11.2c1.1 0 2.2-.2 3.3-.5 3.8-1.2 6.9-4.3 9.1-9.1l3.6-7.5c1.6 1.6 3.5 3 5.8 3.6v8.4c0 .4.1.7.3 1-6.7 3-14.3 8.6-18.1 19.4-.8 2.3-1.2 5.6-1.6 9.4-.7 6.5-1.6 14.6-5.2 16.7-1 .6-2.4.7-4.1.3-1.4-.4-2.2-.7-2.3-.7-1.2-.5-2.6.1-3.1 1.3s.1 2.6 1.3 3.1c.8.4 1.7.6 2.5.8.9.3 2.1.6 3.5 1-5.7.3-10.2 5-10.2 10.8 0 6 4.9 10.8 10.8 10.8h51.8c-.5 8.1-2.4 16.4-6.5 19.8-1.6 1.5-3.7 2-6.2 1.6m9.1 2.4.3-.3c6-5.1 7.7-15.8 8.2-23.4h11.9c-.1 1.1-.2 2.1-.3 3.3-.7 9.3-3.6 15.5-8.6 18.5-3.6 2-7.9 2.3-11.5 1.9m9.6 3.9c1.5-.4 2.9-1 4.3-1.8 3.4-2 6-5.1 7.9-9.1 2.3 5.5 6.3 9.7 9.1 12.1q-10.8-.3-21.3-1.2m25.4-1.6c-3.2-2.6-11.2-10.1-10.4-19.7l.6-6.4h19.6l.1 1.3c.1.8.1 1.5.2 2.3 0 .5.1 1 .2 1.5l.1 1.2c.8 9.7-7.2 17.2-10.4 19.8m4.2 2.7c2.7-2.4 6.7-6.5 9-12q2.7 6 7.8 9c1.4.8 2.8 1.4 4.3 1.8-7 .7-14 1.1-21.1 1.2m19.2-7c-4.7-2.8-7.5-8.4-8.4-16.7l-.4-4.1c0-.3 0-.6-.1-.9h11.9c.4 7.6 2.2 18.4 8.2 23.4l.3.3c-3.6.4-7.8.1-11.5-2m77.9-19c-.8 2.2-2.3 3.6-4.8 4.5-1.1.4-1.8 1.6-1.5 2.7q.3 1.05 1.2 1.5c-15.9 5.9-32.5 10.4-49.7 13.3.3-.6.5-1.2.3-1.9-.4-1.1-1.5-1.8-2.7-1.6-2.5.5-4.6 0-6.4-1.5-4.1-3.4-6-11.8-6.5-19.8h52.3c6 0 10.8-4.9 10.8-10.8s-4.7-10.7-10.6-10.8q1.95-.45 3.3-.9c.8-.2 1.6-.5 2.5-.8 1.2-.5 1.8-1.9 1.3-3.1s-1.8-1.8-3.1-1.3c0 0-.9.3-2.3.7-1.7.4-3 .3-4.1-.3-3.6-2.1-4.5-10.2-5.2-16.7-.4-3.8-.8-7.1-1.6-9.4-3.8-10.6-11.2-16.3-17.8-19.3.2-.4.4-.7.4-1.2v-8.1c2.5-.1 4.5-1.1 6.2-2.3l2.8 5.9c2.2 4.8 5.3 7.9 9.1 9.1 1.1.4 2.2.5 3.3.5-.3.6-.5 1.2-.7 1.8-.9 3.2-.4 6.5 1.2 9.4 2.1 3.7 5.9 5.9 9.9 6.1-.2.4-.4.8-.5 1.2-2.9 7.1-1 16.5 5.8 28 5 8.1 9.3 19 7.1 25.1m4.3 2c.1-.1.1-.3.2-.4 3.4-9.4-3.9-23.5-7.3-29.2-5.9-9.9-7.8-18.1-5.5-23.7 1.2-3.1 3.5-4.8 5.1-5.7l.1-.1c1.5 3.5 5.2 11.8 14.6 31.3 4 8.4 4.6 15.2 1.8 20.3-2.1 3.7-5.7 6.1-9 7.5M513 645c1-1.1 1.9-2.3 2.6-3.6 1.9-3.5 2.7-7.4 2.2-11.8 4.8 3.6 10.3 5.2 13.8 5.9-6 3.3-12.3 6.5-18.6 9.5m21-14c-4.1-.7-14.7-3.2-18.8-11.8l-15.7-33.9 12.2-7 18.6 26.4c.4.6.8 1.2 1.3 1.8l.9 1.2.7 1c5.4 8 2.3 18.5.8 22.3m5 .2c1.2-3.4 2.5-8.9 1.8-14.8 3.6 2.5 7.4 3.9 11.3 3.9h.2c1.4 0 2.7-.2 4-.5-5.6 4.1-11.4 7.8-17.3 11.4m13.1-15.6q-8.25-.15-15.6-10.2l-2.4-3.4c-11.3-16.4-16.3-23.4-18.5-26.3l.8-.4c1.6-.9 3.9-1.6 6.8-1.3 6 .8 12.2 6.5 17.9 16.6 3.2 5.7 11.8 19.1 21.6 20.9.1 0 .3 0 .4.1-3 2.1-6.8 4-11 4m21.6-9c0-.6-.3-1.1-.7-1.6-.9-.8-2.2-.8-3.1-.1-2 1.7-4 2.3-6.3 1.9-6.5-1.2-13.7-10.3-18.4-18.6-6.5-11.6-13.7-18-21.4-19-.4-.1-.9-.1-1.3-.1.3-.7.6-1.4.8-2.2.9-3.2.4-6.6-1.2-9.4-2.1-3.6-5.6-5.7-9.4-6.1.5-.9.9-2 1.2-3.1.9-3.9-.3-8.1-3.3-12.5L493 510.1c6.5-7.2 9.5-16.1 11.8-26.1l34.3 23.4q5.1 3.6 9.9 3.6c.9 0 1.8-.1 2.6-.3 1.2-.3 2.2-.7 3.1-1.2.1.6.1 1.3.3 1.9.9 3.2 2.9 5.9 5.8 7.5 1.9 1.1 4.1 1.7 6.2 1.7 1.9 0 3.7-.5 5.4-1.3 0 .4.1.8.1 1.3 1 7.6 7.4 14.8 19 21.4 8.2 4.6 17.4 11.9 18.6 18.4.4 2.2-.2 4.3-1.9 6.3-.8.9-.7 2.3.1 3.1.4.5 1 .7 1.6.7-11 13-23.1 25.2-36.2 36.1"/><path d="M493.4 410h-.2l.1.1c0-.1 0-.1.1-.1"/></g></svg>